<?xml version="1.0" standalone="no"?><!DOCTYPE svg PUBLIC "-//W3C//DTD SVG 1.1//EN" "http://www.w3.org/Graphics/SVG/1.1/DTD/svg11.dtd"><svg height="1024" node-id="1" sillyvg="true" template-height="1024" template-width="1024" version="1.1" viewBox="0 0 1024 1024" width="1024" xmlns="http://www.w3.org/2000/svg" xmlns:xlink="http://www.w3.org/1999/xlink"><defs node-id="219"><linearGradient gradientUnits="userSpaceOnUse" id="SVGID_1_" node-id="4" spreadMethod="pad" x1="226.09" x2="226.09" y1="-636.61" y2="-683.1819"><stop offset="0.129" stop-color="#ffffff" stop-opacity="0"></stop><stop offset="0.2212" stop-color="#fde7cd" stop-opacity="0.1058"></stop><stop offset="0.3192" stop-color="#fcd19f" stop-opacity="0.2184"></stop><stop offset="0.421" stop-color="#fabe77" stop-opacity="0.3353"></stop><stop offset="0.5252" stop-color="#f9ae57" stop-opacity="0.4549"></stop><stop offset="0.6324" stop-color="#f8a23e" stop-opacity="0.5779"></stop><stop offset="0.7438" stop-color="#f79a2c" stop-opacity="0.7059"></stop><stop offset="0.8623" stop-color="#f79521" stop-opacity="0.842"></stop><stop offset="1" stop-color="#f7931e"></stop></linearGradient><linearGradient gradientUnits="userSpaceOnUse" id="SVGID_2_" node-id="15" spreadMethod="pad" x1="514.18" x2="514.18" y1="-96.6" y2="-332.76"><stop offset="0.217" stop-color="#ffffff" stop-opacity="0"></stop><stop offset="0.2349" stop-color="#fffdfa" stop-opacity="0.0228"></stop><stop offset="0.5139" stop-color="#fddca9" stop-opacity="0.3792"></stop><stop offset="0.743" stop-color="#fcc46d" stop-opacity="0.6717"></stop><stop offset="0.911" stop-color="#fbb649" stop-opacity="0.8863"></stop><stop offset="1" stop-color="#fbb03b"></stop></linearGradient><linearGradient gradientUnits="userSpaceOnUse" id="SVGID_3_" node-id="26" spreadMethod="pad" x1="121.88" x2="121.88" y1="-195.5826" y2="-231.1127"><stop offset="0.2885" stop-color="#ffffff" stop-opacity="0"></stop><stop offset="0.3617" stop-color="#fffcf6" stop-opacity="0.1029"></stop><stop offset="0.4789" stop-color="#fef2df" stop-opacity="0.2676"></stop><stop offset="0.6255" stop-color="#fee3b9" stop-opacity="0.4736"></stop><stop offset="0.7956" stop-color="#fccd84" stop-opacity="0.7128"></stop><stop offset="0.9836" stop-color="#fbb241" stop-opacity="0.977"></stop><stop offset="1" stop-color="#fbb03b"></stop></linearGradient><linearGradient gradientUnits="userSpaceOnUse" id="SVGID_4_" node-id="38" spreadMethod="pad" x1="840.1949" x2="840.1949" y1="-170.576" y2="-194.2551"><stop offset="0.2885" stop-color="#ffffff" stop-opacity="0"></stop><stop offset="0.3617" stop-color="#fffcf6" stop-opacity="0.1029"></stop><stop offset="0.4789" stop-color="#fef2df" stop-opacity="0.2676"></stop><stop offset="0.6255" stop-color="#fee3b9" stop-opacity="0.4736"></stop><stop offset="0.7956" stop-color="#fccd84" stop-opacity="0.7128"></stop><stop offset="0.9836" stop-color="#fbb241" stop-opacity="0.977"></stop><stop offset="1" stop-color="#fbb03b"></stop></linearGradient><linearGradient gradientUnits="userSpaceOnUse" id="SVGID_5_" node-id="49" spreadMethod="pad" x1="907.62" x2="907.62" y1="-155.5509" y2="-173.7877"><stop offset="0.2885" stop-color="#ffffff" stop-opacity="0"></stop><stop offset="0.3617" stop-color="#fffcf6" stop-opacity="0.1029"></stop><stop offset="0.4789" stop-color="#fef2df" stop-opacity="0.2676"></stop><stop offset="0.6255" stop-color="#fee3b9" stop-opacity="0.4736"></stop><stop offset="0.7956" stop-color="#fccd84" stop-opacity="0.7128"></stop><stop offset="0.9836" stop-color="#fbb241" stop-opacity="0.977"></stop><stop offset="1" stop-color="#fbb03b"></stop></linearGradient><linearGradient gradientUnits="userSpaceOnUse" id="SVGID_6_" node-id="58" spreadMethod="pad" x1="821.78" x2="821.78" y1="-699.6" y2="-872.04"><stop offset="0.2273" stop-color="#ffffff" stop-opacity="0"></stop><stop offset="0.2517" stop-color="#fff9f2" stop-opacity="0.0315"></stop><stop offset="0.3636" stop-color="#fddeba" stop-opacity="0.1764"></stop><stop offset="0.4763" stop-color="#fbc78b" stop-opacity="0.3222"></stop><stop offset="0.5872" stop-color="#f9b463" stop-opacity="0.4658"></stop><stop offset="0.6962" stop-color="#f8a645" stop-opacity="0.6068"></stop><stop offset="0.8026" stop-color="#f89b2f" stop-opacity="0.7445"></stop><stop offset="0.9052" stop-color="#f79522" stop-opacity="0.8774"></stop><stop offset="1" stop-color="#f7931e"></stop></linearGradient><linearGradient gradientUnits="userSpaceOnUse" id="SVGID_7_" node-id="69" spreadMethod="pad" x1="769.37" x2="769.37" y1="-667.12" y2="-839.56"><stop offset="0.1067" stop-color="#ffffff" stop-opacity="0"></stop><stop offset="0.1088" stop-color="#fffffe" stop-opacity="0.00240612"></stop><stop offset="0.2981" stop-color="#fddebb" stop-opacity="0.2144"></stop><stop offset="0.4777" stop-color="#fbc383" stop-opacity="0.4153"></stop><stop offset="0.6425" stop-color="#f9af57" stop-opacity="0.5999"></stop><stop offset="0.7898" stop-color="#f89f38" stop-opacity="0.7647"></stop><stop offset="0.9139" stop-color="#f79625" stop-opacity="0.9036"></stop><stop offset="1" stop-color="#f7931e"></stop></linearGradient><linearGradient gradientUnits="userSpaceOnUse" id="SVGID_8_" node-id="80" spreadMethod="pad" x1="261.94" x2="261.94" y1="-560.4" y2="-805.96"><stop offset="0.2273" stop-color="#ffffff" stop-opacity="0"></stop><stop offset="0.271" stop-color="#feeedb" stop-opacity="0.0565"></stop><stop offset="0.3323" stop-color="#fcd8af" stop-opacity="0.1358"></stop><stop offset="0.3981" stop-color="#fbc688" stop-opacity="0.221"></stop><stop offset="0.4678" stop-color="#fab667" stop-opacity="0.3112"></stop><stop offset="0.5423" stop-color="#f9a94c" stop-opacity="0.4076"></stop><stop offset="0.6234" stop-color="#f89f38" stop-opacity="0.5126"></stop><stop offset="0.7145" stop-color="#f79829" stop-opacity="0.6306"></stop><stop offset="0.8238" stop-color="#f79421" stop-opacity="0.772"></stop><stop offset="1" stop-color="#f7931e"></stop></linearGradient><linearGradient gradientUnits="userSpaceOnUse" id="SVGID_9_" node-id="92" spreadMethod="pad" x1="326.17" x2="326.17" y1="-543.49" y2="-727.21"><stop offset="0.2273" stop-color="#ffffff" stop-opacity="0"></stop><stop offset="0.271" stop-color="#feeedb" stop-opacity="0.0565"></stop><stop offset="0.3323" stop-color="#fcd8af" stop-opacity="0.1358"></stop><stop offset="0.3981" stop-color="#fbc688" stop-opacity="0.221"></stop><stop offset="0.4678" stop-color="#fab667" stop-opacity="0.3112"></stop><stop offset="0.5423" stop-color="#f9a94c" stop-opacity="0.4076"></stop><stop offset="0.6234" stop-color="#f89f38" stop-opacity="0.5126"></stop><stop offset="0.7145" stop-color="#f79829" stop-opacity="0.6306"></stop><stop offset="0.8238" stop-color="#f79421" stop-opacity="0.772"></stop><stop offset="1" stop-color="#f7931e"></stop></linearGradient></defs><g node-id="701"><path d="M 197.90 386.40 C 189.30 386.40 182.30 379.10 182.30 370.30 L 182.30 370.30 C 182.30 361.40 195.10 371.00 197.90 354.20 C 200.70 337.40 246.90 332.90 254.40 354.20 C 261.90 375.50 270.00 361.50 270.00 370.30 L 270.00 370.30 C 270.00 379.20 263.00 386.40 254.40 386.40" fill="url(#SVGID_1_)" fill-opacity="0.56" fill-rule="nonzero" group-id="1" node-id="388" stroke="none" target-height="53.5" target-width="87.7" target-x="182.3" target-y="332.9"></path></g><path d="M 982.00 808.30 C 982.00 839.62 932.71 869.66 844.98 891.81 C 757.26 913.96 638.27 926.40 514.20 926.40 C 390.13 926.40 271.14 913.96 183.42 891.81 C 95.69 869.66 46.40 839.62 46.40 808.30 C 46.40 776.98 95.69 746.94 183.42 724.79 C 271.14 702.64 390.13 690.20 514.20 690.20 C 638.27 690.20 757.26 702.64 844.98 724.79 C 932.71 746.94 982.00 776.98 982.00 808.30 Z" fill="url(#SVGID_2_)" fill-rule="nonzero" node-id="391" stroke="none" target-height="236.20001" target-width="935.6" target-x="46.4" target-y="690.2"></path><path d="M 104.70 711.00 L 92.10 754.70 C 88.80 766.30 97.50 777.90 109.60 777.90 L 134.70 777.90 C 146.80 777.90 155.50 766.30 152.20 754.70 L 139.70 711.00 C 134.70 693.50 109.80 693.50 104.70 711.00 Z" fill="#fbb03b" fill-opacity="0.87" fill-rule="nonzero" group-id="2,15" node-id="397" stroke="none" target-height="84.400024" target-width="66.7" target-x="88.8" target-y="693.5"></path><path d="M 122.80 826.30 L 120.90 826.30 C 117.70 826.30 115.10 823.70 115.10 820.50 L 115.10 778.00 L 128.60 778.00 L 128.60 820.50 C 128.60 823.70 126.10 826.30 122.80 826.30 Z" fill="url(#SVGID_3_)" fill-opacity="0.87" fill-rule="nonzero" group-id="2,15" node-id="399" stroke="none" target-height="48.299988" target-width="13.500008" target-x="115.1" target-y="778"></path><path d="M 824.60 763.80 L 809.00 792.60 C 802.40 804.70 811.20 819.50 825.00 819.50 L 856.30 819.50 C 870.10 819.50 878.90 804.70 872.30 792.60 L 856.70 763.80 C 849.80 751.10 831.50 751.10 824.60 763.80 Z" fill="#fbb03b" fill-opacity="0.68" fill-rule="nonzero" group-id="2,16,21" node-id="406" stroke="none" target-height="68.400024" target-width="76.5" target-x="802.4" target-y="751.1"></path><path d="M 841.40 851.70 L 839.00 851.70 C 835.00 851.70 831.70 848.40 831.70 844.40 L 831.70 819.50 L 848.70 819.50 L 848.70 844.40 C 848.70 848.40 845.40 851.70 841.40 851.70 Z" fill="url(#SVGID_4_)" fill-opacity="0.68" fill-rule="nonzero" group-id="2,16,21" node-id="408" stroke="none" target-height="32.200012" target-width="17" target-x="831.7" target-y="819.5"></path><path d="M 892.00 805.80 L 886.90 815.20 C 880.30 827.30 889.10 842.00 902.80 842.00 L 913.00 842.00 C 926.80 842.00 935.50 827.30 928.90 815.20 L 923.80 805.80 C 917.00 793.20 898.90 793.20 892.00 805.80 Z" fill="#fbb03b" fill-opacity="0.68" fill-rule="nonzero" group-id="2,16,22" node-id="413" stroke="none" target-height="48.799988" target-width="55.200012" target-x="880.3" target-y="793.2"></path><path d="M 908.60 866.90 L 906.70 866.90 C 903.60 866.90 901.10 864.40 901.10 861.30 L 901.10 842.10 L 914.20 842.10 L 914.20 861.30 C 914.20 864.30 911.70 866.90 908.60 866.90 Z" fill="url(#SVGID_5_)" fill-opacity="0.68" fill-rule="nonzero" group-id="2,16,22" node-id="415" stroke="none" target-height="24.800049" target-width="13.100037" target-x="901.1" target-y="842.1"></path><path d="M 843.20 237.20 C 843.20 284.81 833.62 323.40 821.80 323.40 C 809.98 323.40 800.40 284.81 800.40 237.20 C 800.40 189.59 809.98 151.00 821.80 151.00 C 833.62 151.00 843.20 189.59 843.20 237.20 Z" fill="url(#SVGID_6_)" fill-opacity="0.46" fill-rule="nonzero" group-id="3" node-id="422" stroke="none" target-height="172.4" target-width="42.799988" target-x="800.4" target-y="151"></path><path d="M 790.80 269.70 C 790.80 317.31 781.22 355.90 769.40 355.90 C 757.58 355.90 748.00 317.31 748.00 269.70 C 748.00 222.09 757.58 183.50 769.40 183.50 C 781.22 183.50 790.80 222.09 790.80 269.70 Z" fill="url(#SVGID_7_)" fill-opacity="0.57" fill-rule="nonzero" group-id="4" node-id="427" stroke="none" target-height="172.4" target-width="42.799988" target-x="748" target-y="183.5"></path><path d="M 303.40 339.80 C 303.40 407.62 284.82 462.60 261.90 462.60 C 238.98 462.60 220.40 407.62 220.40 339.80 C 220.40 271.98 238.98 217.00 261.90 217.00 C 284.82 217.00 303.40 271.98 303.40 339.80 Z" fill="url(#SVGID_8_)" fill-opacity="0.46" fill-rule="nonzero" group-id="5,17" node-id="434" stroke="none" target-height="245.6" target-width="83" target-x="220.4" target-y="217"></path><path d="M 368.60 387.60 C 368.60 438.35 349.62 479.50 326.20 479.50 C 302.78 479.50 283.80 438.35 283.80 387.60 C 283.80 336.85 302.78 295.70 326.20 295.70 C 349.62 295.70 368.60 336.85 368.60 387.60 Z" fill="url(#SVGID_9_)" fill-opacity="0.78" fill-rule="nonzero" group-id="5,18" node-id="439" stroke="none" target-height="183.79999" target-width="84.80002" target-x="283.8" target-y="295.7"></path><path d="M 172.00 471.90 C 173.60 471.60 175.20 471.80 176.70 472.20 C 178.20 472.60 179.80 473.20 181.10 474.20 C 182.40 475.20 183.60 476.50 184.30 478.00 C 185.00 479.50 185.20 481.30 184.80 482.80 L 184.50 484.30 L 184.40 482.90 L 184.40 482.90 C 184.40 482.90 184.40 482.80 184.40 482.80 L 184.40 482.80 L 184.40 482.80 L 184.40 482.70 L 184.40 482.60 L 184.50 482.30 C 184.60 482.10 184.60 481.90 184.70 481.80 C 184.80 481.40 185.00 481.10 185.20 480.80 C 185.60 480.20 186.10 479.60 186.60 479.10 C 187.70 478.10 189.00 477.20 190.80 477.00 C 191.70 476.90 192.60 477.00 193.40 477.40 C 194.20 477.80 194.80 478.30 195.30 478.90 C 196.30 480.10 196.80 481.50 196.90 483.00 L 196.50 483.20 C 195.70 482.10 194.90 481.00 194.00 480.20 C 193.10 479.40 192.10 479.10 191.10 479.40 C 190.10 479.60 189.00 480.30 188.00 481.00 C 187.50 481.40 187.00 481.80 186.50 482.20 C 186.20 482.40 185.90 482.60 185.70 482.80 L 185.30 483.10 L 185.10 483.20 L 185.00 483.30 L 184.90 483.30 C 184.90 483.30 184.90 483.30 184.90 483.30 L 184.90 483.30 C 184.90 483.30 184.90 483.20 184.90 483.20 L 184.90 483.20 L 184.40 483.30 C 183.80 481.90 183.30 480.60 182.50 479.50 C 181.70 478.40 180.70 477.50 179.70 476.70 C 178.60 475.90 177.40 475.20 176.10 474.60 L 172.00 472.80 L 172.00 471.90 Z" fill="#ff7f0a" fill-rule="nonzero" group-id="6" node-id="445" stroke="none" target-height="12.699982" target-width="24.899994" target-x="172" target-y="471.6"></path><path d="M 839.80 269.40 C 841.70 269.20 843.60 269.70 845.20 270.60 C 846.90 271.50 848.50 272.60 849.60 274.20 C 850.80 275.70 851.60 277.60 851.90 279.40 C 852.30 281.30 852.30 283.10 851.80 284.90 L 851.30 286.90 L 851.30 284.90 L 851.30 284.90 L 851.30 284.40 L 851.30 284.10 C 851.30 283.90 851.30 283.70 851.40 283.50 C 851.50 283.10 851.60 282.70 851.70 282.30 C 852.00 281.50 852.40 280.80 852.90 280.10 C 853.40 279.40 854.00 278.70 854.70 278.10 C 855.40 277.50 856.30 276.90 857.40 276.70 C 858.00 276.60 858.60 276.60 859.20 276.80 C 859.80 277.00 860.30 277.30 860.70 277.70 C 861.50 278.40 861.90 279.20 862.30 280.00 C 863.00 281.60 863.30 283.30 863.30 284.90 L 862.80 285.00 C 862.00 283.60 861.30 282.10 860.50 280.90 C 860.10 280.30 859.70 279.80 859.20 279.40 C 858.70 279.10 858.40 279.00 858.00 279.20 C 857.10 279.50 856.00 280.50 855.10 281.60 C 854.60 282.20 854.20 282.70 853.60 283.30 C 853.30 283.60 853.10 283.90 852.80 284.20 C 852.70 284.30 852.50 284.50 852.30 284.60 L 852.10 284.80 L 852.00 284.90 L 851.90 284.90 C 851.90 284.90 851.90 285.00 851.90 284.80 L 851.90 284.80 L 851.40 284.80 C 850.80 283.10 850.30 281.50 849.60 280.00 C 849.00 278.50 848.20 277.10 847.30 275.90 C 846.40 274.60 845.30 273.50 844.00 272.50 C 842.70 271.50 841.30 270.70 839.70 269.90 L 839.80 269.40 Z" fill="#ff7f0a" fill-rule="nonzero" group-id="7" node-id="450" stroke="none" target-height="17.699982" target-width="23.599976" target-x="839.7" target-y="269.2"></path><path d="M 226.10 464.50 C 227.80 464.40 229.50 465.10 230.90 466.10 C 232.30 467.10 233.50 468.40 234.30 469.90 C 235.10 471.40 235.60 473.10 235.80 474.70 C 236.00 476.30 235.90 478.00 235.50 479.60 L 235.00 481.70 L 235.00 479.70 L 235.00 479.70 L 235.00 479.30 L 235.00 479.00 C 235.00 478.80 235.00 478.60 235.00 478.40 C 235.00 478.00 235.10 477.60 235.20 477.30 C 235.40 476.60 235.70 475.90 236.10 475.20 C 236.50 474.50 236.90 473.90 237.50 473.20 C 238.10 472.60 238.70 471.90 239.90 471.70 C 240.50 471.60 241.20 471.70 241.70 472.00 C 242.20 472.30 242.60 472.70 242.80 473.00 C 243.30 473.70 243.60 474.50 243.90 475.20 C 244.40 476.70 244.50 478.20 244.50 479.70 L 244.10 479.80 C 243.50 478.50 243.00 477.10 242.30 475.90 C 242.00 475.30 241.70 474.70 241.30 474.30 C 241.10 474.10 240.90 474.00 240.80 473.90 C 240.70 473.90 240.60 473.90 240.50 473.90 C 240.20 474.00 239.80 474.30 239.40 474.80 C 239.00 475.30 238.60 475.80 238.20 476.30 C 237.80 476.90 237.40 477.40 237.00 478.00 C 236.80 478.30 236.60 478.60 236.30 478.90 L 235.90 479.30 L 235.70 479.50 L 235.60 479.60 C 235.60 479.60 235.50 479.70 235.50 479.60 L 235.50 479.60 L 235.00 479.60 C 234.50 478.10 234.10 476.60 233.60 475.10 C 233.10 473.70 232.60 472.30 231.90 471.10 C 231.20 469.80 230.50 468.60 229.50 467.60 C 228.50 466.60 227.30 465.70 226.00 464.90 L 226.10 464.50 Z" fill="#ff7f0a" fill-rule="nonzero" group-id="8" node-id="455" stroke="none" target-height="17.300018" target-width="18.5" target-x="226" target-y="464.4"></path><path d="M 848.80 196.20 C 850.80 195.90 852.90 196.30 854.80 197.00 C 856.70 197.70 858.60 198.80 860.10 200.30 C 860.90 201.10 861.50 201.90 862.10 202.80 C 862.60 203.70 863.10 204.70 863.40 205.70 C 864.00 207.70 864.10 209.80 863.60 211.80 L 863.10 213.80 L 863.00 211.90 L 863.00 211.90 L 863.00 211.30 L 863.00 210.90 C 863.00 210.70 863.10 210.40 863.20 210.20 C 863.30 209.70 863.50 209.30 863.70 208.90 C 864.10 208.00 864.60 207.30 865.30 206.60 C 865.90 205.90 866.60 205.20 867.50 204.60 C 868.30 204.00 869.30 203.50 870.50 203.30 C 871.70 203.10 873.00 203.40 874.00 204.10 C 875.00 204.70 875.60 205.60 876.10 206.40 C 877.10 208.10 877.50 209.90 877.60 211.70 L 877.00 212.00 C 876.00 210.50 875.20 209.00 874.20 207.80 C 873.70 207.20 873.20 206.70 872.60 206.50 C 872.00 206.30 871.50 206.20 871.00 206.40 C 869.90 206.70 868.60 207.70 867.40 208.80 C 866.80 209.40 866.20 209.90 865.60 210.50 C 865.30 210.80 865.00 211.10 864.60 211.30 L 864.10 211.70 L 863.80 211.90 L 863.70 212.00 L 863.60 212.00 C 863.60 212.00 863.60 212.10 863.60 211.90 L 863.60 211.90 L 863.00 212.00 C 862.30 210.10 861.70 208.40 860.90 206.90 C 860.10 205.40 859.00 204.00 857.90 202.80 C 856.70 201.60 855.40 200.50 853.80 199.50 C 852.20 198.50 850.60 197.80 848.90 196.90 L 848.80 196.20 Z" fill="#ff7f0a" fill-rule="nonzero" group-id="9" node-id="460" stroke="none" target-height="17.90001" target-width="28.799988" target-x="848.8" target-y="195.9"></path><path d="M 678.40 754.80 C 678.40 759.16 606.18 762.70 517.10 762.70 C 428.02 762.70 355.80 759.16 355.80 754.80 C 355.80 750.44 428.02 746.90 517.10 746.90 C 606.18 746.90 678.40 750.44 678.40 754.80 Z" fill="#808080" fill-opacity="0.21" fill-rule="nonzero" group-id="10" node-id="465" stroke="none" target-height="15.799988" target-width="322.60004" target-x="355.8" target-y="746.9"></path><path d="M 705.40 479.80 C 705.40 479.80 700.20 488.90 703.30 495.50 C 706.60 502.50 778.80 496.60 703.80 514.40 C 697.50 515.90 690.30 522.80 680.10 522.80 C 669.90 522.80 663.90 522.80 663.90 522.80" fill="none" node-id="468" stroke="#f18c24" stroke-dasharray="9.8776 9.8776" stroke-linecap="butt" stroke-width="4" target-height="43" target-width="114.89996" target-x="663.9" target-y="479.8"></path><path d="M 328.30 567.50 C 328.30 567.50 320.80 596.20 322.20 612.30 C 323.70 628.40 337.30 657.60 343.10 661.10 C 348.90 664.60 367.10 672.90 376.00 669.80 C 384.90 666.70 390.20 653.20 387.90 645.90 C 385.60 638.60 369.30 600.80 361.70 590.00 C 354.20 579.40 328.30 567.50 328.30 567.50 Z" fill="#00a99d" fill-rule="nonzero" group-id="11,19,23,28" node-id="478" stroke="none" target-height="105.400024" target-width="69.400024" target-x="320.8" target-y="567.5"></path><path d="M 328.30 567.50 L 376.10 669.90" fill="none" group-id="11,19,23,28" node-id="480" stroke="#ffffff" stroke-linecap="butt" stroke-width="2.4658" target-height="102.400024" target-width="47.80002" target-x="328.3" target-y="567.5"></path><path d="M 352.90 616.80 L 355.80 595.80" fill="none" group-id="11,19,23,28" node-id="482" stroke="#ffffff" stroke-linecap="butt" stroke-width="2.4658" target-height="21" target-width="2.899994" target-x="352.9" target-y="595.8"></path><path d="M 368.60 653.50 L 371.40 632.50" fill="none" group-id="11,19,23,28" node-id="484" stroke="#ffffff" stroke-linecap="butt" stroke-width="2.4658" target-height="21" target-width="2.7999878" target-x="368.6" target-y="632.5"></path><path d="M 361.70 640.30 L 342.10 629.30" fill="none" group-id="11,19,23,28" node-id="486" stroke="#ffffff" stroke-linecap="butt" stroke-width="2.4658" target-height="11" target-width="19.600006" target-x="342.1" target-y="629.3"></path><path d="M 342.60 599.90 L 329.30 592.40" fill="none" group-id="11,19,23,28" node-id="488" stroke="#ffffff" stroke-linecap="butt" stroke-width="2.4658" target-height="7.5" target-width="13.300018" target-x="329.3" target-y="592.4"></path><path d="M 270.20 632.40 C 270.20 632.40 285.20 657.90 297.60 668.20 C 310.00 678.50 340.20 689.10 346.80 687.40 C 353.40 685.70 372.00 678.40 376.10 669.90 C 380.20 661.40 374.30 648.10 367.50 644.60 C 360.70 641.10 322.50 626.30 309.60 624.20 C 296.70 622.10 270.20 632.40 270.20 632.40 Z" fill="#fbb03b" fill-rule="nonzero" group-id="11,19,23,29" node-id="493" stroke="none" target-height="67" target-width="110" target-x="270.2" target-y="622.1"></path><path d="M 270.20 632.40 L 376.10 669.90" fill="none" group-id="11,19,23,29" node-id="495" stroke="#ffffff" stroke-linecap="butt" stroke-width="2.4658" target-height="37.5" target-width="105.899994" target-x="270.2" target-y="632.4"></path><path d="M 322.30 649.30 L 309.50 632.50" fill="none" group-id="11,19,23,29" node-id="497" stroke="#ffffff" stroke-linecap="butt" stroke-width="2.4658" target-height="16.799988" target-width="12.799988" target-x="309.5" target-y="632.5"></path><path d="M 359.30 663.80 L 346.40 647.00" fill="none" group-id="11,19,23,29" node-id="499" stroke="#ffffff" stroke-linecap="butt" stroke-width="2.4658" target-height="16.799988" target-width="12.899994" target-x="346.4" target-y="647"></path><path d="M 345.10 659.40 L 323.60 665.80" fill="none" group-id="11,19,23,29" node-id="501" stroke="#ffffff" stroke-linecap="butt" stroke-width="2.4658" target-height="6.3999634" target-width="21.5" target-x="323.6" target-y="659.4"></path><path d="M 303.10 644.80 L 288.40 649.10" fill="none" group-id="11,19,23,29" node-id="503" stroke="#ffffff" stroke-linecap="butt" stroke-width="2.4658" target-height="4.299988" target-width="14.700012" target-x="288.4" target-y="644.8"></path><path d="M 271.70 711.50 C 271.70 711.50 299.60 720.90 315.70 720.40 C 331.80 719.90 361.50 708.00 365.30 702.40 C 369.10 696.80 378.50 679.00 376.00 669.90 C 373.50 660.70 360.50 654.60 353.10 656.50 C 345.70 658.40 307.20 672.30 296.10 679.30 C 285.00 686.20 271.70 711.50 271.70 711.50 Z" fill="#f15a24" fill-rule="nonzero" group-id="11,19,23,30" node-id="508" stroke="none" target-height="66.30005" target-width="106.79999" target-x="271.7" target-y="654.6"></path><path d="M 271.70 711.50 L 376.10 669.90" fill="none" group-id="11,19,23,30" node-id="510" stroke="#ffffff" stroke-linecap="butt" stroke-width="2.4658" target-height="41.599976" target-width="104.399994" target-x="271.7" target-y="669.9"></path><path d="M 322.10 689.80 L 301.50 685.70" fill="none" group-id="11,19,23,30" node-id="512" stroke="#ffffff" stroke-linecap="butt" stroke-width="2.4658" target-height="4.0999756" target-width="20.600006" target-x="301.5" target-y="685.7"></path><path d="M 359.40 676.40 L 338.80 672.20" fill="none" group-id="11,19,23,30" node-id="514" stroke="#ffffff" stroke-linecap="butt" stroke-width="2.4658" target-height="4.200012" target-width="20.600006" target-x="338.8" target-y="672.2"></path><path d="M 345.90 682.40 L 333.80 701.50" fill="none" group-id="11,19,23,30" node-id="516" stroke="#ffffff" stroke-linecap="butt" stroke-width="2.4658" target-height="19.099976" target-width="12.100006" target-x="333.8" target-y="682.4"></path><path d="M 304.60 699.10 L 296.40 712.10" fill="none" group-id="11,19,23,30" node-id="518" stroke="#ffffff" stroke-linecap="butt" stroke-width="2.4658" target-height="13" target-width="8.200012" target-x="296.4" target-y="699.1"></path><path d="M 721.90 567.50 C 721.90 567.50 725.10 595.80 720.70 611.20 C 716.40 626.70 696.60 653.90 689.70 656.80 C 682.80 659.80 661.80 666.40 652.80 662.80 C 643.80 659.20 640.40 645.70 644.10 638.80 C 647.80 631.90 671.90 596.60 681.90 586.70 C 692.00 577.00 721.90 567.50 721.90 567.50 Z" fill="#009245" fill-rule="nonzero" group-id="11,19,24,31" node-id="526" stroke="none" target-height="98.900024" target-width="84.69995" target-x="640.4" target-y="567.5"></path><path d="M 721.90 567.50 L 652.90 662.80" fill="none" group-id="11,19,24,31" node-id="528" stroke="#ffffff" stroke-linecap="butt" stroke-width="2.5302" target-height="95.29999" target-width="69" target-x="652.9" target-y="567.5"></path><path d="M 686.90 613.30 L 687.50 592.80" fill="none" group-id="11,19,24,31" node-id="530" stroke="#ffffff" stroke-linecap="butt" stroke-width="2.5302" target-height="20.5" target-width="0.5999756" target-x="686.9" target-y="592.8"></path><path d="M 663.80 647.60 L 664.30 627.10" fill="none" group-id="11,19,24,31" node-id="532" stroke="#ffffff" stroke-linecap="butt" stroke-width="2.5302" target-height="20.5" target-width="0.5" target-x="663.8" target-y="627.1"></path><path d="M 673.40 635.30 L 696.40 626.10" fill="none" group-id="11,19,24,31" node-id="534" stroke="#ffffff" stroke-linecap="butt" stroke-width="2.5302" target-height="9.200012" target-width="23" target-x="673.4" target-y="626.1"></path><path d="M 700.90 597.70 L 716.60 591.40" fill="none" group-id="11,19,24,31" node-id="536" stroke="#ffffff" stroke-linecap="butt" stroke-width="2.5302" target-height="6.299988" target-width="15.699951" target-x="700.9" target-y="591.4"></path><path d="M 773.30 634.40 C 773.30 634.40 752.80 658.00 737.60 667.00 C 722.40 676.00 688.10 684.10 681.30 681.90 C 674.50 679.80 655.80 671.40 652.80 662.80 C 649.90 654.30 658.50 641.90 666.40 639.00 C 674.30 636.20 717.90 624.60 732.20 623.50 C 746.50 622.50 773.30 634.40 773.30 634.40 Z" fill="#9364d3" fill-rule="nonzero" group-id="11,19,24,32" node-id="541" stroke="none" target-height="61.599976" target-width="123.39996" target-x="649.9" target-y="622.5"></path><path d="M 773.30 634.40 L 652.90 662.80" fill="none" group-id="11,19,24,32" node-id="543" stroke="#ffffff" stroke-linecap="butt" stroke-width="2.5302" target-height="28.399963" target-width="120.39996" target-x="652.9" target-y="634.4"></path><path d="M 714.30 647.00 L 731.00 631.70" fill="none" group-id="11,19,24,32" node-id="545" stroke="#ffffff" stroke-linecap="butt" stroke-width="2.5302" target-height="15.299988" target-width="16.700012" target-x="714.3" target-y="631.7"></path><path d="M 672.00 658.20 L 688.70 642.90" fill="none" group-id="11,19,24,32" node-id="547" stroke="#ffffff" stroke-linecap="butt" stroke-width="2.5302" target-height="15.299988" target-width="16.700012" target-x="672" target-y="642.9"></path><path d="M 688.00 655.00 L 710.10 662.80" fill="none" group-id="11,19,24,32" node-id="549" stroke="#ffffff" stroke-linecap="butt" stroke-width="2.5302" target-height="7.799988" target-width="22.099976" target-x="688" target-y="655"></path><path d="M 735.70 644.00 L 750.80 649.20" fill="none" group-id="11,19,24,32" node-id="551" stroke="#ffffff" stroke-linecap="butt" stroke-width="2.5302" target-height="5.200012" target-width="15.099976" target-x="735.7" target-y="644"></path><path d="M 758.00 710.70 C 758.00 710.70 726.30 717.70 709.10 716.10 C 691.90 714.50 661.90 700.80 658.80 695.10 C 655.60 689.40 648.60 671.50 652.90 662.90 C 657.20 654.30 672.20 649.30 679.90 651.60 C 687.60 653.90 726.50 670.30 737.30 677.80 C 748.10 685.30 758.00 710.70 758.00 710.70 Z" fill="#0071bc" fill-rule="nonzero" group-id="11,19,24,33" node-id="556" stroke="none" target-height="68.400024" target-width="109.400024" target-x="648.6" target-y="649.3"></path><path d="M 758.00 710.70 L 652.90 662.80" fill="none" group-id="11,19,24,33" node-id="558" stroke="#ffffff" stroke-linecap="butt" stroke-width="2.5302" target-height="47.900024" target-width="105.099976" target-x="652.9" target-y="662.8"></path><path d="M 707.50 686.10 L 730.40 683.60" fill="none" group-id="11,19,24,33" node-id="560" stroke="#ffffff" stroke-linecap="butt" stroke-width="2.5302" target-height="2.5" target-width="22.900024" target-x="707.5" target-y="683.6"></path><path d="M 669.70 670.40 L 692.60 667.80" fill="none" group-id="11,19,24,33" node-id="562" stroke="#ffffff" stroke-linecap="butt" stroke-width="2.5302" target-height="2.6000366" target-width="22.899963" target-x="669.7" target-y="667.8"></path><path d="M 683.20 677.20 L 693.00 696.50" fill="none" group-id="11,19,24,33" node-id="564" stroke="#ffffff" stroke-linecap="butt" stroke-width="2.5302" target-height="19.299988" target-width="9.799988" target-x="683.2" target-y="677.2"></path><path d="M 724.70 696.30 L 731.40 709.50" fill="none" group-id="11,19,24,33" node-id="566" stroke="#ffffff" stroke-linecap="butt" stroke-width="2.5302" target-height="13.200012" target-width="6.700012" target-x="724.7" target-y="696.3"></path><path d="M 664.80 708.80 L 355.90 708.80 C 352.60 708.80 350.00 706.10 350.00 702.90 L 350.00 507.20 C 350.00 503.90 352.70 501.30 355.90 501.30 L 664.80 501.30 C 668.10 501.30 670.70 504.00 670.70 507.20 L 670.70 702.90 C 670.80 706.20 668.10 708.80 664.80 708.80 Z" fill="#f7881e" fill-rule="nonzero" group-id="11,19" node-id="570" stroke="none" target-height="207.5" target-width="320.8" target-x="350" target-y="501.3"></path><path d="M 663.60 703.40 L 357.10 703.40 C 355.20 703.40 353.60 701.80 353.60 699.90 L 353.60 510.30 C 353.60 508.40 355.20 506.80 357.10 506.80 L 663.60 506.80 C 665.50 506.80 667.10 508.40 667.10 510.30 L 667.10 699.90 C 667.10 701.80 665.60 703.40 663.60 703.40 Z" fill="#ffffff" fill-rule="nonzero" group-id="11,19" node-id="572" stroke="none" target-height="196.60004" target-width="313.49997" target-x="353.6" target-y="506.8"></path><path d="M 663.80 725.10 L 356.30 725.10 C 352.80 725.10 350.00 722.30 350.00 718.80 L 350.00 711.90 L 670.70 711.90 L 670.70 718.10 C 670.80 722.00 667.60 725.10 663.80 725.10 Z" fill="#f7881e" fill-rule="nonzero" group-id="11,19" node-id="574" stroke="none" target-height="13.199951" target-width="320.8" target-x="350" target-y="711.9"></path><path d="M 419.70 705.80 L 437.40 705.80 L 437.40 712.00 L 419.70 712.00 Z" fill="#f7c21e" fill-rule="nonzero" group-id="11,19" node-id="576" stroke="none" target-height="6.200012" target-width="17.699982" target-x="419.7" target-y="705.8"></path><path d="M 583.30 705.80 L 601.00 705.80 L 601.00 712.00 L 583.30 712.00 Z" fill="#f7c21e" fill-rule="nonzero" group-id="11,19" node-id="578" stroke="none" target-height="6.200012" target-width="17.700012" target-x="583.3" target-y="705.8"></path><path d="M 371.30 616.70 L 515.70 616.70 L 515.70 661.60 L 371.30 661.60 Z" fill="#7ad839" fill-rule="nonzero" group-id="11,19" node-id="580" stroke="none" target-height="44.899963" target-width="144.40002" target-x="371.3" target-y="616.7"></path><path d="M 326.20 532.40 L 470.60 532.40 L 470.60 577.30 L 326.20 577.30 Z" fill="#f15a24" fill-rule="nonzero" group-id="11,19" node-id="582" stroke="none" target-height="44.899963" target-width="144.4" target-x="326.2" target-y="532.4"></path><path d="M 558.90 583.40 L 703.30 583.40 L 703.30 628.30 L 558.90 628.30 Z" fill="#f9bda7" fill-rule="nonzero" group-id="11,19" node-id="584" stroke="none" target-height="44.899963" target-width="144.39996" target-x="558.9" target-y="583.4"></path><path d="M 558.90 657.60 L 558.90 628.00 L 584.60 628.00 Z" fill="#f9bda7" fill-rule="nonzero" group-id="11,19" node-id="586" stroke="none" target-height="29.599976" target-width="25.699951" target-x="558.9" target-y="628"></path><path d="M 470.40 604.90 L 470.40 575.40 L 444.70 575.40 Z" fill="#f15a24" fill-rule="nonzero" group-id="11,19" node-id="588" stroke="none" target-height="29.5" target-width="25.699982" target-x="444.7" target-y="575.4"></path><path d="M 515.70 690.90 L 515.70 661.30 L 489.70 661.70 Z" fill="#7ad839" fill-rule="nonzero" group-id="11,19" node-id="590" stroke="none" target-height="29.600037" target-width="26" target-x="489.7" target-y="661.3"></path><path d="M 385.10 541.00 L 339.60 541.00 C 339.10 541.00 338.80 540.50 338.80 540.00 L 338.80 540.00 C 338.80 539.40 339.20 539.00 339.60 539.00 L 385.10 539.00 C 385.60 539.00 385.90 539.50 385.90 540.00 L 385.90 540.00 C 385.90 540.60 385.60 541.00 385.10 541.00 Z" fill="#ffffff" fill-rule="nonzero" group-id="11,19" node-id="592" stroke="none" target-height="2" target-width="47.100006" target-x="338.8" target-y="539"></path><path d="M 428.10 540.50 L 390.20 540.50 C 389.80 540.50 389.50 540.20 389.50 539.80 L 389.50 539.20 C 389.50 538.80 389.80 538.50 390.20 538.50 L 428.10 538.50 C 428.50 538.50 428.80 538.80 428.80 539.20 L 428.80 539.80 C 428.80 540.20 428.50 540.50 428.10 540.50 Z" fill="#ffffff" fill-rule="nonzero" group-id="11,19" node-id="594" stroke="none" target-height="2" target-width="39.299988" target-x="389.5" target-y="538.5"></path><path d="M 429.10 545.70 L 390.30 545.70 C 389.90 545.70 389.60 545.40 389.60 545.00 L 389.60 544.40 C 389.60 544.00 389.90 543.70 390.30 543.70 L 429.10 543.70 C 429.50 543.70 429.80 544.00 429.80 544.40 L 429.80 545.00 C 429.80 545.40 429.40 545.70 429.10 545.70 Z" fill="#ffffff" fill-rule="nonzero" group-id="11,19" node-id="596" stroke="none" target-height="2" target-width="40.19998" target-x="389.6" target-y="543.7"></path><path d="M 430.30 552.40 L 390.30 552.40 C 389.90 552.40 389.60 552.10 389.60 551.70 L 389.60 551.10 C 389.60 550.70 389.90 550.40 390.30 550.40 L 430.30 550.40 C 430.70 550.40 431.00 550.70 431.00 551.10 L 431.00 551.70 C 431.00 552.10 430.70 552.40 430.30 552.40 Z" fill="#ffffff" fill-rule="nonzero" group-id="11,19" node-id="598" stroke="none" target-height="2" target-width="41.399994" target-x="389.6" target-y="550.4"></path><path d="M 385.30 549.40 L 339.50 549.40 C 339.10 549.40 338.80 549.70 338.80 550.10 L 338.80 551.80 C 338.80 552.20 339.10 552.50 339.50 552.50 L 385.30 552.50 C 385.70 552.50 386.00 552.20 386.00 551.80 L 386.00 550.10 C 385.90 549.70 385.60 549.40 385.30 549.40 Z" fill="#ffffff" fill-rule="nonzero" group-id="11,19" node-id="600" stroke="none" target-height="3.0999756" target-width="47.200012" target-x="338.8" target-y="549.4"></path><path d="M 364.80 557.60 L 339.10 557.60 C 338.70 557.60 338.40 557.30 338.40 556.90 L 338.40 556.30 C 338.40 555.90 338.70 555.60 339.10 555.60 L 364.80 555.60 C 365.20 555.60 365.50 555.90 365.50 556.30 L 365.50 556.90 C 365.50 557.30 365.20 557.60 364.80 557.60 Z" fill="#ffffff" fill-rule="nonzero" group-id="11,19" node-id="602" stroke="none" target-height="2" target-width="27.100006" target-x="338.4" target-y="555.6"></path><path d="M 385.30 546.20 L 339.50 546.20 C 339.10 546.20 338.80 545.90 338.80 545.50 L 338.80 544.90 C 338.80 544.50 339.10 544.20 339.50 544.20 L 385.30 544.20 C 385.70 544.20 386.00 544.50 386.00 544.90 L 386.00 545.50 C 385.90 545.90 385.60 546.20 385.30 546.20 Z" fill="#ffffff" fill-rule="nonzero" group-id="11,19" node-id="604" stroke="none" target-height="2" target-width="47.200012" target-x="338.8" target-y="544.2"></path><path d="M 427.90 632.90 L 383.50 632.90 C 383.00 632.90 382.50 632.50 382.50 631.90 L 382.50 631.00 C 382.50 630.50 382.90 630.00 383.50 630.00 L 427.90 630.00 C 428.40 630.00 428.90 630.40 428.90 631.00 L 428.90 631.90 C 428.90 632.50 428.50 632.90 427.90 632.90 Z" fill="#ffffff" fill-rule="nonzero" group-id="11,19" node-id="606" stroke="none" target-height="2.9000244" target-width="46.399994" target-x="382.5" target-y="630"></path><path d="M 474.20 632.90 L 445.70 632.90 C 445.20 632.90 444.70 632.50 444.70 631.90 L 444.70 631.00 C 444.70 630.50 445.10 630.00 445.70 630.00 L 474.20 630.00 C 474.70 630.00 475.20 630.40 475.20 631.00 L 475.20 631.90 C 475.20 632.50 474.80 632.90 474.20 632.90 Z" fill="#ffffff" fill-rule="nonzero" group-id="11,19" node-id="608" stroke="none" target-height="2.9000244" target-width="30.5" target-x="444.7" target-y="630"></path><path d="M 428.00 641.90 L 383.50 641.90 C 383.00 641.90 382.50 641.50 382.50 640.90 L 382.50 640.00 C 382.50 639.50 382.90 639.00 383.50 639.00 L 428.00 639.00 C 428.50 639.00 429.00 639.40 429.00 640.00 L 429.00 640.90 C 428.90 641.50 428.50 641.90 428.00 641.90 Z" fill="#ffffff" fill-rule="nonzero" group-id="11,19" node-id="610" stroke="none" target-height="2.9000244" target-width="46.5" target-x="382.5" target-y="639"></path><path d="M 473.00 641.90 L 445.70 641.90 C 445.20 641.90 444.70 641.50 444.70 640.90 L 444.70 640.00 C 444.70 639.50 445.10 639.00 445.70 639.00 L 473.00 639.00 C 473.50 639.00 474.00 639.40 474.00 640.00 L 474.00 640.90 C 473.90 641.50 473.50 641.90 473.00 641.90 Z" fill="#ffffff" fill-rule="nonzero" group-id="11,19" node-id="612" stroke="none" target-height="2.9000244" target-width="29.299988" target-x="444.7" target-y="639"></path><path d="M 428.40 650.80 L 382.40 650.80 C 382.10 650.80 381.90 650.60 381.90 650.30 L 381.90 648.40 C 381.90 648.10 382.10 647.90 382.40 647.90 L 428.40 647.90 C 428.70 647.90 428.90 648.10 428.90 648.40 L 428.90 650.30 C 428.90 650.60 428.70 650.80 428.40 650.80 Z" fill="#ffffff" fill-rule="nonzero" group-id="11,19" node-id="614" stroke="none" target-height="2.8999634" target-width="47" target-x="381.9" target-y="647.9"></path><path d="M 617.30 592.40 L 592.80 592.40 C 592.20 592.40 591.70 591.90 591.70 591.30 L 591.70 590.20 C 591.70 589.60 592.20 589.10 592.80 589.10 L 617.30 589.10 C 617.90 589.10 618.40 589.60 618.40 590.20 L 618.40 591.30 C 618.50 591.80 618.00 592.40 617.30 592.40 Z" fill="#ffffff" fill-rule="nonzero" group-id="11,19" node-id="616" stroke="none" target-height="3.3000488" target-width="26.799988" target-x="591.7" target-y="589.1"></path><path d="M 680.00 592.40 L 629.20 592.40 C 628.60 592.40 628.10 591.90 628.10 591.30 L 628.10 590.20 C 628.10 589.60 628.60 589.10 629.20 589.10 L 680.00 589.10 C 680.60 589.10 681.10 589.60 681.10 590.20 L 681.10 591.30 C 681.10 591.80 680.60 592.40 680.00 592.40 Z" fill="#ffffff" fill-rule="nonzero" group-id="11,19" node-id="618" stroke="none" target-height="3.3000488" target-width="53" target-x="628.1" target-y="589.1"></path><path d="M 617.50 603.70 L 592.70 603.70 C 592.20 603.70 591.70 603.20 591.70 602.70 L 591.70 601.80 C 591.70 601.30 592.20 600.80 592.70 600.80 L 617.50 600.80 C 618.00 600.80 618.50 601.30 618.50 601.80 L 618.50 602.70 C 618.50 603.30 618.00 603.70 617.50 603.70 Z" fill="#ffffff" fill-rule="nonzero" group-id="11,19" node-id="620" stroke="none" target-height="2.9000244" target-width="26.799988" target-x="591.7" target-y="600.8"></path><path d="M 693.20 605.10 L 629.50 605.10 C 628.70 605.10 628.00 604.40 628.00 603.60 L 628.00 602.20 C 628.00 601.40 628.70 600.70 629.50 600.70 L 693.20 600.70 C 694.00 600.70 694.70 601.40 694.70 602.20 L 694.70 603.60 C 694.70 604.40 694.00 605.10 693.20 605.10 Z" fill="#ffffff" fill-rule="nonzero" group-id="11,19" node-id="622" stroke="none" target-height="4.3999634" target-width="66.70001" target-x="628" target-y="600.7"></path><path d="M 606.40 616.80 L 593.20 616.80 C 592.70 616.80 592.30 616.40 592.30 615.90 L 592.30 615.00 C 592.30 614.50 592.70 614.10 593.20 614.10 L 606.40 614.10 C 606.90 614.10 607.30 614.50 607.30 615.00 L 607.30 615.90 C 607.40 616.40 606.90 616.80 606.40 616.80 Z" fill="#ffffff" fill-rule="nonzero" group-id="11,19" node-id="624" stroke="none" target-height="2.7000122" target-width="15.100037" target-x="592.3" target-y="614.1"></path><path d="M 693.80 616.80 L 617.70 616.80 C 617.20 616.80 616.80 616.40 616.80 615.90 L 616.80 615.00 C 616.80 614.50 617.20 614.10 617.70 614.10 L 693.80 614.10 C 694.30 614.10 694.70 614.50 694.70 615.00 L 694.70 615.90 C 694.70 616.40 694.30 616.80 693.80 616.80 Z" fill="#ffffff" fill-rule="nonzero" group-id="11,19" node-id="626" stroke="none" target-height="2.7000122" target-width="77.900024" target-x="616.8" target-y="614.1"></path><path d="M 463.20 552.40 C 463.20 559.75 458.45 565.70 452.60 565.70 C 446.75 565.70 442.00 559.75 442.00 552.40 C 442.00 545.05 446.75 539.10 452.60 539.10 C 458.45 539.10 463.20 545.05 463.20 552.40 Z" fill="#ffffff" fill-rule="nonzero" group-id="11,19" node-id="628" stroke="none" target-height="26.600037" target-width="21.200012" target-x="442" target-y="539.1"></path><path d="M 509.50 640.10 C 509.50 648.00 504.35 654.40 498.00 654.40 C 491.65 654.40 486.50 648.00 486.50 640.10 C 486.50 632.20 491.65 625.80 498.00 625.80 C 504.35 625.80 509.50 632.20 509.50 640.10 Z" fill="#ffffff" fill-rule="nonzero" group-id="11,19" node-id="630" stroke="none" target-height="28.600037" target-width="23" target-x="486.5" target-y="625.8"></path><path d="M 584.00 605.90 C 584.00 612.97 579.39 618.70 573.70 618.70 C 568.01 618.70 563.40 612.97 563.40 605.90 C 563.40 598.83 568.01 593.10 573.70 593.10 C 579.39 593.10 584.00 598.83 584.00 605.90 Z" fill="#ffffff" fill-rule="nonzero" group-id="11,19" node-id="632" stroke="none" target-height="25.600037" target-width="20.599976" target-x="563.4" target-y="593.1"></path><path d="M 516.10 532.40 L 553.40 532.40 L 553.40 563.40 L 516.10 563.40 Z" fill="#fbb03b" fill-rule="nonzero" group-id="11,19" node-id="634" stroke="none" target-height="31" target-width="37.30005" target-x="516.1" target-y="532.4"></path><path d="M 578.80 532.70 L 616.10 532.70 L 616.10 563.70 L 578.80 563.70 Z" fill="#f15a24" fill-rule="nonzero" group-id="11,19" node-id="636" stroke="none" target-height="31" target-width="37.299988" target-x="578.8" target-y="532.7"></path><path d="M 581.10 652.30 L 618.40 652.30 L 618.40 683.30 L 581.10 683.30 Z" fill="#9364d3" fill-rule="nonzero" group-id="11,19" node-id="638" stroke="none" target-height="31" target-width="37.30005" target-x="581.1" target-y="652.3"></path><path d="M 514.80 503.90 C 514.80 504.45 514.35 504.90 513.80 504.90 C 513.25 504.90 512.80 504.45 512.80 503.90 C 512.80 503.35 513.25 502.90 513.80 502.90 C 514.35 502.90 514.80 503.35 514.80 503.90 Z" fill="#333333" fill-opacity="0.58" fill-rule="nonzero" group-id="11,20,25" node-id="645" stroke="#ffffff" stroke-linecap="butt" stroke-opacity="0.58" stroke-width="0.2056" target-height="2" target-width="2" target-x="512.8" target-y="502.9"></path><path d="M 509.70 503.90 C 509.70 504.34 509.34 504.70 508.90 504.70 C 508.46 504.70 508.10 504.34 508.10 503.90 C 508.10 503.46 508.46 503.10 508.90 503.10 C 509.34 503.10 509.70 503.46 509.70 503.90 Z" fill="#333333" fill-opacity="0.58" fill-rule="nonzero" group-id="11,20,26" node-id="650" stroke="#ffffff" stroke-linecap="butt" stroke-opacity="0.58" stroke-width="0.2056" target-height="1.6000061" target-width="1.6000061" target-x="508.1" target-y="503.1"></path><path d="M 519.10 503.90 C 519.10 504.45 518.65 504.90 518.10 504.90 C 517.55 504.90 517.10 504.45 517.10 503.90 C 517.10 503.35 517.55 502.90 518.10 502.90 C 518.65 502.90 519.10 503.35 519.10 503.90 Z" fill="#333333" fill-opacity="0.58" fill-rule="nonzero" group-id="11,20,27" node-id="655" stroke="#ffffff" stroke-linecap="butt" stroke-opacity="0.58" stroke-width="0.2056" target-height="2" target-width="2" target-x="517.1" target-y="502.9"></path><path d="M 656.70 399.10 L 758.40 399.10 C 764.40 399.10 769.40 404.10 769.40 410.10 L 769.40 468.50 C 769.40 474.50 764.40 479.50 758.40 479.50 L 656.70 479.50 C 650.70 479.50 645.70 474.50 645.70 468.50 L 645.70 410.10 C 645.70 404.10 650.60 399.10 656.70 399.10 Z" fill="#f18c24" fill-rule="nonzero" group-id="12" node-id="662" stroke="none" target-height="80.399994" target-width="123.70001" target-x="645.7" target-y="399.1"></path><path d="M 726.30 434.40 L 706.30 422.90 C 704.10 421.60 701.30 423.20 701.30 425.80 L 701.30 448.90 C 701.30 451.40 704.10 453.00 706.30 451.80 L 726.30 440.30 C 728.50 438.90 728.50 435.70 726.30 434.40 Z" fill="#ffffff" fill-rule="nonzero" group-id="12" node-id="664" stroke="none" target-height="31.399994" target-width="27.200012" target-x="701.3" target-y="421.6"></path><path d="M 693.40 409.60 L 660.70 409.60 C 659.70 409.60 658.90 408.80 658.90 407.80 L 658.90 407.80 C 658.90 406.80 659.70 406.00 660.70 406.00 L 693.40 406.00 C 694.40 406.00 695.20 406.80 695.20 407.80 L 695.20 407.80 C 695.10 408.90 694.30 409.60 693.40 409.60 Z" fill="#ffffff" fill-rule="nonzero" group-id="12" node-id="666" stroke="none" target-height="3.600006" target-width="36.299988" target-x="658.9" target-y="406"></path><path d="M 693.40 458.50 L 660.70 458.50 C 659.70 458.50 658.90 457.70 658.90 456.70 L 658.90 456.70 C 658.90 455.70 659.70 454.90 660.70 454.90 L 693.40 454.90 C 694.40 454.90 695.20 455.70 695.20 456.70 L 695.20 456.70 C 695.10 457.70 694.30 458.50 693.40 458.50 Z" fill="#ffffff" fill-rule="nonzero" group-id="12" node-id="668" stroke="none" target-height="3.600006" target-width="36.299988" target-x="658.9" target-y="454.9"></path><path d="M 693.40 465.80 L 660.70 465.80 C 659.70 465.80 658.90 465.00 658.90 464.00 L 658.90 464.00 C 658.90 463.00 659.70 462.20 660.70 462.20 L 693.40 462.20 C 694.40 462.20 695.20 463.00 695.20 464.00 L 695.20 464.00 C 695.10 465.00 694.30 465.80 693.40 465.80 Z" fill="#ffffff" fill-rule="nonzero" group-id="12" node-id="670" stroke="none" target-height="3.5999756" target-width="36.299988" target-x="658.9" target-y="462.2"></path><path d="M 693.40 472.60 L 660.70 472.60 C 659.70 472.60 658.90 471.80 658.90 470.80 L 658.90 470.80 C 658.90 469.80 659.70 469.00 660.70 469.00 L 693.40 469.00 C 694.40 469.00 695.20 469.80 695.20 470.80 L 695.20 470.80 C 695.10 471.80 694.30 472.60 693.40 472.60 Z" fill="#ffffff" fill-rule="nonzero" group-id="12" node-id="672" stroke="none" target-height="3.600006" target-width="36.299988" target-x="658.9" target-y="469"></path><path d="M 746.40 465.50 L 727.30 465.50 C 726.30 465.50 725.50 464.70 725.50 463.70 L 725.50 463.70 C 725.50 462.70 726.30 461.90 727.30 461.90 L 746.40 461.90 C 747.40 461.90 748.20 462.70 748.20 463.70 L 748.20 463.70 C 748.10 464.70 747.30 465.50 746.40 465.50 Z" fill="#ffffff" fill-rule="nonzero" group-id="12" node-id="674" stroke="none" target-height="3.600006" target-width="22.700012" target-x="725.5" target-y="461.9"></path><path d="M 760.00 472.30 L 727.30 472.30 C 726.30 472.30 725.50 471.50 725.50 470.50 L 725.50 470.50 C 725.50 469.50 726.30 468.70 727.30 468.70 L 760.00 468.70 C 761.00 468.70 761.80 469.50 761.80 470.50 L 761.80 470.50 C 761.70 471.50 760.90 472.30 760.00 472.30 Z" fill="#ffffff" fill-rule="nonzero" group-id="12" node-id="676" stroke="none" target-height="3.5999756" target-width="36.299988" target-x="725.5" target-y="468.7"></path><path d="M 752.30 409.60 L 736.70 409.60 C 735.70 409.60 734.90 408.80 734.90 407.80 L 734.90 407.80 C 734.90 406.80 735.70 406.00 736.70 406.00 L 752.30 406.00 C 753.30 406.00 754.10 406.80 754.10 407.80 L 754.10 407.80 C 754.00 408.90 753.20 409.60 752.30 409.60 Z" fill="#ffffff" fill-rule="nonzero" group-id="12" node-id="678" stroke="none" target-height="3.600006" target-width="19.199951" target-x="734.9" target-y="406"></path><path d="M 186.20 423.20 C 188.20 423.00 190.10 423.50 191.90 424.40 C 193.70 425.30 195.30 426.60 196.60 428.20 C 197.80 429.80 198.70 431.70 199.00 433.70 C 199.40 435.70 199.40 437.60 198.90 439.50 L 198.40 441.60 L 198.40 439.50 L 198.40 439.50 L 198.40 439.00 L 198.40 438.60 C 198.40 438.40 198.50 438.10 198.50 437.90 C 198.60 437.40 198.70 437.00 198.90 436.60 C 199.20 435.80 199.60 435.00 200.20 434.20 C 200.70 433.40 201.30 432.70 202.10 432.10 C 202.80 431.50 203.70 430.80 205.00 430.60 C 205.60 430.50 206.30 430.50 206.90 430.70 C 207.50 430.90 208.00 431.20 208.40 431.60 C 209.20 432.40 209.70 433.20 210.10 434.10 C 210.80 435.80 211.10 437.50 211.10 439.30 L 210.60 439.40 C 209.80 437.90 209.10 436.40 208.20 435.10 C 207.80 434.50 207.30 433.90 206.80 433.60 C 206.30 433.30 205.90 433.20 205.50 433.40 C 204.60 433.70 203.40 434.80 202.40 435.90 C 201.90 436.50 201.40 437.10 200.80 437.70 C 200.50 438.00 200.20 438.30 199.90 438.60 C 199.80 438.70 199.60 438.90 199.40 439.00 L 199.10 439.20 L 199.00 439.30 L 198.90 439.30 C 198.90 439.30 198.90 439.40 198.90 439.20 L 198.90 439.20 L 198.30 439.20 C 197.70 437.40 197.10 435.70 196.50 434.10 C 195.80 432.50 195.00 431.10 194.00 429.80 C 193.00 428.50 191.90 427.20 190.60 426.20 C 189.30 425.20 187.70 424.30 186.10 423.40 L 186.20 423.20 Z" fill="#ff7f0a" fill-rule="nonzero" group-id="13" node-id="683" stroke="none" target-height="18.600006" target-width="25" target-x="186.1" target-y="423"></path><path d="M 102.80 454.00 C 104.20 453.80 105.60 454.00 107.00 454.50 C 108.30 455.00 109.60 455.70 110.70 456.80 C 111.80 457.80 112.50 459.20 113.00 460.60 C 113.40 462.00 113.50 463.50 113.10 464.90 L 112.80 466.30 L 112.70 464.90 L 112.70 464.90 L 112.70 464.50 L 112.70 464.20 C 112.70 464.00 112.80 463.90 112.80 463.70 C 112.90 463.40 113.00 463.10 113.10 462.80 C 113.40 462.20 113.80 461.70 114.20 461.20 C 115.10 460.20 116.10 459.20 117.80 458.90 C 118.60 458.80 119.50 459.00 120.20 459.40 C 120.90 459.90 121.30 460.40 121.70 461.00 C 122.40 462.20 122.70 463.40 122.70 464.70 L 122.30 464.80 C 121.60 463.80 121.10 462.70 120.40 461.90 C 120.10 461.50 119.70 461.10 119.30 461.00 C 118.90 460.90 118.60 460.80 118.20 460.90 C 117.40 461.10 116.50 461.80 115.70 462.50 C 115.30 462.90 114.90 463.30 114.50 463.70 C 114.30 463.90 114.10 464.10 113.80 464.30 L 113.40 464.60 L 113.20 464.70 L 113.10 464.80 L 113.00 464.80 C 113.00 464.80 113.00 464.90 113.00 464.70 L 113.00 464.70 L 112.60 464.70 C 112.10 463.40 111.70 462.20 111.10 461.20 C 110.50 460.10 109.80 459.20 109.00 458.30 C 108.20 457.40 107.20 456.70 106.20 456.00 C 105.10 455.40 104.00 454.80 102.80 454.20 L 102.80 454.00 Z" fill="#ff7f0a" fill-rule="nonzero" group-id="14" node-id="688" stroke="none" target-height="12.5" target-width="19.899994" target-x="102.8" target-y="453.8"></path><path d="M 504.90 546.20 L 510.00 552.40 L 521.20 542.60" fill="none" node-id="691" stroke="#ffffff" stroke-linecap="butt" stroke-width="3" target-height="9.800049" target-width="16.300018" target-x="504.9" target-y="542.6"></path><path d="M 569.90 542.70 L 579.70 553.70" fill="none" node-id="693" stroke="#ffffff" stroke-linecap="butt" stroke-width="3.8463" target-height="11" target-width="9.799988" target-x="569.9" target-y="542.7"></path><path d="M 579.70 542.70 L 571.60 553.70" fill="none" node-id="695" stroke="#ffffff" stroke-linecap="butt" stroke-width="3.8463" target-height="11" target-width="8.100037" target-x="571.6" target-y="542.7"></path><path d="M 576.50 665.80 C 576.50 665.80 579.20 662.00 581.90 664.70 C 584.60 667.40 576.50 673.50 576.50 673.50" fill="#ffffff" fill-rule="nonzero" node-id="697" stroke="none" target-height="11.5" target-width="8.099976" target-x="576.5" target-y="662"></path><path d="M 576.50 665.80 C 576.50 665.80 573.80 662.00 571.10 664.70 C 568.40 667.40 576.50 673.50 576.50 673.50" fill="#ffffff" fill-rule="nonzero" node-id="699" stroke="none" target-height="11.5" target-width="8.099976" target-x="568.4" target-y="662"></path></svg>